<svg id="Capa_1" enable-background="new 0 0 512 512" height="512" viewBox="0 0 512 512" width="512" xmlns="http://www.w3.org/2000/svg"><g><circle cx="289" cy="241" r="10"/><circle cx="226" cy="241" r="10"/><path d="m479 121c0-55.14-44.86-100-100-100-31.274 0-60.234 14.367-79.116 38.83-13.063-5.597-28.85-8.83-43.884-8.83s-30.821 3.233-43.884 8.83c-18.883-24.464-47.843-38.83-79.116-38.83-55.14 0-100 44.86-100 100 0 10.729 1.677 21.21 4.983 31.247-24.211 25.501-37.983 57.514-37.983 88.753 0 72.556 59.15 130 130 130h116v65c0 19.299-15.701 35-35 35-11.028 0-20-8.972-20-20s8.972-20 20-20c5.523 0 10-4.477 10-10s-4.477-10-10-10c-22.056 0-40 17.944-40 40s17.944 40 40 40c30.327 0 55-24.673 55-55v-65h116c70.842 0 130-57.432 130-130 0-31.239-13.772-63.252-37.983-88.753 3.306-10.039 4.983-20.52 4.983-31.247zm-100 40c5.523 0 10-4.477 10-10v-20.01h69.363c-4.934 39.763-38.575 70.01-79.363 70.01-40.724 0-74.413-30.593-79.353-70h69.353v20c0 5.523 4.477 10 10 10zm0-120c40.724 0 74.413 30.593 79.353 70h-158.719c4.924-39.407 38.371-70 79.366-70zm-320.183 110.012c-2.609-6.433-4.327-13.135-5.18-20.012h69.363v20c0 5.523 4.477 10 10 10s10-4.477 10-10v-20.01h69.353c-4.94 39.417-38.629 70.01-79.353 70.01-32.769 0-61.887-19.62-74.183-49.988zm74.183-110.012c40.997 0 74.443 30.595 79.366 70h-158.719c4.94-39.407 38.629-70 79.353-70zm-3 310c-32.994 0-64.116-14.975-84.836-40h200.836v40zm349.986-60h-65.986c-5.523 0-10 4.477-10 10s4.477 9.99 10 9.99h52.837c-20.719 25.024-51.842 40.01-84.837 40.01h-116v-40h58c5.523 0 10-4.477 10-10s-4.477-10-10-10h-291.986c-7.866-15.392-12.014-32.556-12.014-50 0-23.742 9.721-48.228 27.021-68.857 17.826 30.097 50.157 48.857 85.979 48.857 55.14 0 100-44.86 100-100 0-15.341-3.493-30.33-10.158-43.94 10.021-3.819 21.976-6.06 33.158-6.06s23.137 2.241 33.159 6.06c-6.666 13.611-10.159 28.599-10.159 43.94 0 55.14 44.86 100 100 100 35.823 0 68.156-18.761 85.98-48.857 17.299 20.629 27.02 45.115 27.02 68.857 0 17.443-4.147 34.606-12.014 50z"/><circle cx="369" cy="300.999" r="10"/></g></svg>