<svg width="260" height="260" viewBox="0 0 260 260" fill="none" xmlns="http://www.w3.org/2000/svg">
<circle cx="130" cy="130" r="130" fill="white"/>
<path d="M143.584 133.952C145.774 133.952 147.549 132.118 147.549 129.856C147.549 127.594 145.774 125.761 143.584 125.761C141.394 125.761 139.619 127.594 139.619 129.856C139.619 132.118 141.394 133.952 143.584 133.952Z" fill="black"/>
<path d="M118.605 133.952C120.795 133.952 122.57 132.118 122.57 129.856C122.57 127.594 120.795 125.761 118.605 125.761C116.416 125.761 114.641 127.594 114.641 129.856C114.641 132.118 116.416 133.952 118.605 133.952Z" fill="black"/>
<path d="M218.916 80.7074C218.916 58.1235 201.13 39.75 179.268 39.75C166.868 39.75 155.386 45.6344 147.899 55.6538C142.72 53.3614 136.461 52.0372 130.5 52.0372C124.539 52.0372 118.28 53.3614 113.101 55.6538C105.614 45.6339 94.1317 39.75 81.7324 39.75C59.8703 39.75 42.084 58.1235 42.084 80.7074C42.084 85.1018 42.7489 89.3945 44.0597 93.5054C34.4604 103.95 29 117.062 29 129.856C29 159.573 52.4521 183.101 80.543 183.101H126.535V209.723C126.535 217.628 120.31 224.059 112.658 224.059C108.286 224.059 104.729 220.384 104.729 215.867C104.729 211.35 108.286 207.676 112.658 207.676C114.848 207.676 116.623 205.842 116.623 203.58C116.623 201.318 114.848 199.484 112.658 199.484C103.913 199.484 96.7988 206.833 96.7988 215.867C96.7988 224.901 103.913 232.25 112.658 232.25C124.682 232.25 134.465 222.145 134.465 209.723V183.101H180.457C208.545 183.101 232 159.578 232 129.856C232 117.062 226.54 103.95 216.94 93.5054C218.251 89.3937 218.916 85.101 218.916 80.7074V80.7074ZM179.268 97.0904C181.457 97.0904 183.232 95.2568 183.232 92.9947V84.7991H210.734C208.778 101.085 195.439 113.473 179.268 113.473C163.121 113.473 149.764 100.943 147.805 84.8032H175.303V92.9947C175.303 95.2568 177.078 97.0904 179.268 97.0904ZM179.268 47.9415C195.414 47.9415 208.771 60.4716 210.73 76.6117H147.8C149.752 60.4716 163.014 47.9415 179.268 47.9415ZM52.32 92.9996C51.2856 90.3648 50.6044 87.6198 50.2662 84.8032H77.7676V92.9947C77.7676 95.2568 79.5426 97.0904 81.7324 97.0904C83.9222 97.0904 85.6973 95.2568 85.6973 92.9947V84.7991H113.195C111.236 100.943 97.8789 113.473 81.7324 113.473C68.74 113.473 57.1952 105.438 52.32 92.9996V92.9996ZM81.7324 47.9415C97.9871 47.9415 111.248 60.4724 113.2 76.6117H50.2702C52.2288 60.4716 65.586 47.9415 81.7324 47.9415ZM80.543 174.91C67.4614 174.91 55.122 168.776 46.9068 158.527H126.535V174.91H80.543ZM219.307 150.335H193.145C190.955 150.335 189.18 152.169 189.18 154.431C189.18 156.693 190.955 158.522 193.145 158.522H214.094C205.879 168.772 193.539 174.91 180.457 174.91H134.465V158.527H157.461C159.651 158.527 161.426 156.693 161.426 154.431C161.426 152.169 159.651 150.335 157.461 150.335H41.6931C38.5743 144.031 36.9297 137.001 36.9297 129.856C36.9297 120.132 40.7839 110.103 47.6431 101.654C54.7108 113.981 67.5296 121.665 81.7324 121.665C103.595 121.665 121.381 103.291 121.381 80.7074C121.381 74.4242 119.996 68.2851 117.353 62.7107C121.327 61.1466 126.067 60.2287 130.5 60.2287C134.933 60.2287 139.673 61.1466 143.647 62.7107C141.004 68.2855 139.619 74.4242 139.619 80.7074C139.619 103.291 157.405 121.665 179.268 121.665C193.471 121.665 206.29 113.981 213.357 101.654C220.216 110.103 224.07 120.132 224.07 129.856C224.07 137.001 222.426 144.03 219.307 150.335Z" fill="black"/>
<path d="M175.303 158.526C177.492 158.526 179.268 156.692 179.268 154.43C179.268 152.168 177.492 150.335 175.303 150.335C173.113 150.335 171.338 152.168 171.338 154.43C171.338 156.692 173.113 158.526 175.303 158.526Z" fill="black"/>
</svg>
