<svg width="512" height="511" viewBox="0 0 512 511" fill="none" xmlns="http://www.w3.org/2000/svg">
<rect width="512" height="511" fill="#E5E5E5"/>
<rect width="512" height="511" fill="#F68121"/>
<path d="M287.066 250.809C292.266 250.809 296.48 246.608 296.48 241.426C296.48 236.243 292.266 232.043 287.066 232.043C281.867 232.043 277.652 236.243 277.652 241.426C277.652 246.608 281.867 250.809 287.066 250.809Z" fill="black"/>
<path d="M227.758 250.809C232.957 250.809 237.172 246.608 237.172 241.426C237.172 236.243 232.957 232.043 227.758 232.043C222.559 232.043 218.344 236.243 218.344 241.426C218.344 246.608 222.559 250.809 227.758 250.809Z" fill="black"/>
<path d="M465.934 128.83C465.934 77.092 423.702 35 371.793 35C342.351 35 315.088 48.4805 297.313 71.4341C285.015 66.1825 270.153 63.1489 256 63.1489C241.847 63.1489 226.985 66.1825 214.687 71.4341C196.911 48.4796 169.648 35 140.207 35C88.2979 35 46.0664 77.092 46.0664 128.83C46.0664 138.897 47.6451 148.731 50.7574 158.149C27.965 182.076 15 212.114 15 241.426C15 309.505 70.6842 363.404 137.383 363.404H246.586V424.394C246.586 442.502 231.805 457.234 213.637 457.234C203.255 457.234 194.809 448.816 194.809 438.468C194.809 428.121 203.255 419.702 213.637 419.702C218.836 419.702 223.051 415.501 223.051 410.319C223.051 405.137 218.836 400.936 213.637 400.936C192.873 400.936 175.98 417.773 175.98 438.468C175.98 459.163 192.873 476 213.637 476C242.187 476 265.414 452.849 265.414 424.394V363.404H374.617C441.308 363.404 497 309.516 497 241.426C497 212.114 484.035 182.076 461.243 158.149C464.355 148.729 465.934 138.895 465.934 128.83ZM371.793 166.362C376.992 166.362 381.207 162.161 381.207 156.979V138.203H446.506C441.861 175.513 410.191 203.894 371.793 203.894C333.455 203.894 301.74 175.188 297.09 138.213H362.379V156.979C362.379 162.161 366.594 166.362 371.793 166.362ZM371.793 53.766C410.131 53.766 441.846 82.4713 446.496 119.447H297.077C301.713 82.4713 333.2 53.766 371.793 53.766ZM70.3707 156.99C67.9146 150.954 66.2972 144.665 65.4942 138.213H130.793V156.979C130.793 162.161 135.008 166.362 140.207 166.362C145.406 166.362 149.621 162.161 149.621 156.979V138.203H214.91C210.26 175.188 178.545 203.894 140.207 203.894C109.358 203.894 81.9462 185.484 70.3707 156.99ZM140.207 53.766C178.802 53.766 210.288 82.4732 214.923 119.447H65.5036C70.1542 82.4713 101.869 53.766 140.207 53.766ZM137.383 344.638C106.322 344.638 77.0236 330.587 57.5177 307.106H246.586V344.638H137.383ZM466.862 288.34H404.742C399.543 288.34 395.328 292.541 395.328 297.723C395.328 302.906 399.543 307.097 404.742 307.097H454.483C434.978 330.577 405.679 344.638 374.617 344.638H265.414V307.106H320.016C325.215 307.106 329.43 302.906 329.43 297.723C329.43 292.541 325.215 288.34 320.016 288.34H45.1382C37.7331 273.898 33.8281 257.793 33.8281 241.426C33.8281 219.148 42.9795 196.173 59.2659 176.817C76.0474 205.057 106.484 222.66 140.207 222.66C192.116 222.66 234.348 180.568 234.348 128.83C234.348 114.435 231.059 100.371 224.785 87.601C234.219 84.0176 245.473 81.9149 256 81.9149C266.527 81.9149 277.781 84.0176 287.216 87.601C280.941 100.372 277.652 114.435 277.652 128.83C277.652 180.568 319.884 222.66 371.793 222.66C405.517 222.66 435.955 205.056 452.735 176.817C469.02 196.173 478.172 219.148 478.172 241.426C478.172 257.792 474.268 273.896 466.862 288.34Z" fill="black"/>
<path d="M362.379 307.105C367.578 307.105 371.793 302.905 371.793 297.722C371.793 292.54 367.578 288.339 362.379 288.339C357.18 288.339 352.965 292.54 352.965 297.722C352.965 302.905 357.18 307.105 362.379 307.105Z" fill="black"/>
</svg>
