<svg id="_x31_" enable-background="new 0 0 24 24" height="512" viewBox="0 0 24 24" width="512" xmlns="http://www.w3.org/2000/svg"><g><g><path d="m14.781 21c-.083 0-.166-.021-.242-.062l-2.539-1.404-2.539 1.404c-.168.094-.374.082-.53-.029-.156-.11-.236-.3-.205-.489l.49-3.007-2.073-2.125c-.131-.134-.176-.33-.117-.508.06-.178.214-.307.399-.335l2.846-.435 1.277-2.721c.164-.352.74-.352.904 0l1.277 2.721 2.846.435c.186.028.34.158.399.335.059.178.014.374-.117.508l-2.073 2.125.49 3.007c.031.189-.049.379-.205.489-.086.06-.186.091-.288.091zm-2.781-2.538c.083 0 .167.021.242.062l1.88 1.039-.365-2.24c-.025-.157.024-.316.136-.43l1.57-1.61-2.147-.328c-.165-.025-.307-.131-.377-.282l-.939-1.996-.938 1.998c-.07.151-.212.257-.377.282l-2.147.328 1.57 1.61c.111.114.161.273.136.43l-.365 2.24 1.88-1.039c.074-.043.158-.064.241-.064z"/></g></g><g><g><path d="m21.5 24h-19c-1.379 0-2.5-1.122-2.5-2.5v-17c0-1.378 1.121-2.5 2.5-2.5h19c1.379 0 2.5 1.122 2.5 2.5v17c0 1.378-1.121 2.5-2.5 2.5zm-19-21c-.827 0-1.5.673-1.5 1.5v17c0 .827.673 1.5 1.5 1.5h19c.827 0 1.5-.673 1.5-1.5v-17c0-.827-.673-1.5-1.5-1.5z"/></g></g><g><g><path d="m23.5 8h-23c-.276 0-.5-.224-.5-.5s.224-.5.5-.5h23c.276 0 .5.224.5.5s-.224.5-.5.5z"/></g></g><g><g><path d="m5.5 5c-.276 0-.5-.224-.5-.5v-4c0-.276.224-.5.5-.5s.5.224.5.5v4c0 .276-.224.5-.5.5z"/></g></g><g><g><path d="m18.5 5c-.276 0-.5-.224-.5-.5v-4c0-.276.224-.5.5-.5s.5.224.5.5v4c0 .276-.224.5-.5.5z"/></g></g></svg>