<?xml version="1.0"?>
<svg xmlns="http://www.w3.org/2000/svg" width="512" height="512" viewBox="0 0 128 128"><g><path d="M120.25,23.507h-5.625V14.374a5.756,5.756,0,0,0-5.75-5.75h-4.034a5.756,5.756,0,0,0-5.75,5.75v9.133H86.053V14.374a5.756,5.756,0,0,0-5.75-5.75H76.269a5.757,5.757,0,0,0-5.75,5.75v9.133H57.481V14.374a5.757,5.757,0,0,0-5.75-5.75H47.7a5.757,5.757,0,0,0-5.75,5.75v9.133H28.909V14.374a5.757,5.757,0,0,0-5.75-5.75H19.125a5.757,5.757,0,0,0-5.75,5.75v9.133H7.75A7.759,7.759,0,0,0,0,31.257v81.369a6.758,6.758,0,0,0,6.75,6.75h114.5a6.758,6.758,0,0,0,6.75-6.75V31.257A7.759,7.759,0,0,0,120.25,23.507Zm-17.659-9.133a2.253,2.253,0,0,1,2.25-2.25h4.034a2.253,2.253,0,0,1,2.25,2.25v9.133h-8.534Zm-28.572,0a2.253,2.253,0,0,1,2.25-2.25H80.3a2.253,2.253,0,0,1,2.25,2.25v9.133H74.019Zm-28.572,0a2.253,2.253,0,0,1,2.25-2.25h4.034a2.253,2.253,0,0,1,2.25,2.25v9.133H45.447Zm-28.572,0a2.253,2.253,0,0,1,2.25-2.25h4.034a2.253,2.253,0,0,1,2.25,2.25v9.133H16.875ZM3.5,31.257a4.255,4.255,0,0,1,4.25-4.25h112.5a4.254,4.254,0,0,1,4.25,4.25V42.635H3.5Zm121,81.369a3.254,3.254,0,0,1-3.25,3.25H6.75a3.254,3.254,0,0,1-3.25-3.25V46.135h121Z"/><path d="M13.75,68.063H24.486a3.755,3.755,0,0,0,3.75-3.75V56.385a3.754,3.754,0,0,0-3.75-3.75H13.75A3.754,3.754,0,0,0,10,56.385v7.928A3.755,3.755,0,0,0,13.75,68.063ZM13.5,56.385a.25.25,0,0,1,.25-.25H24.486a.25.25,0,0,1,.25.25v7.928a.251.251,0,0,1-.25.25H13.75a.251.251,0,0,1-.25-.25Z"/><path d="M43.671,68.063H54.407a3.755,3.755,0,0,0,3.75-3.75V56.385a3.754,3.754,0,0,0-3.75-3.75H43.671a3.754,3.754,0,0,0-3.75,3.75v7.928A3.755,3.755,0,0,0,43.671,68.063Zm-.25-11.678a.251.251,0,0,1,.25-.25H54.407a.25.25,0,0,1,.25.25v7.928a.251.251,0,0,1-.25.25H43.671a.251.251,0,0,1-.25-.25Z"/><path d="M73.593,68.063H84.329a3.755,3.755,0,0,0,3.75-3.75V56.385a3.755,3.755,0,0,0-3.75-3.75H73.593a3.754,3.754,0,0,0-3.75,3.75v7.928A3.755,3.755,0,0,0,73.593,68.063Zm-.25-11.678a.25.25,0,0,1,.25-.25H84.329a.25.25,0,0,1,.25.25v7.928a.251.251,0,0,1-.25.25H73.593a.251.251,0,0,1-.25-.25Z"/><path d="M103.514,68.063H114.25a3.755,3.755,0,0,0,3.75-3.75V56.385a3.755,3.755,0,0,0-3.75-3.75H103.514a3.754,3.754,0,0,0-3.75,3.75v7.928A3.755,3.755,0,0,0,103.514,68.063Zm-.25-11.678a.25.25,0,0,1,.25-.25H114.25a.25.25,0,0,1,.25.25v7.928a.251.251,0,0,1-.25.25H103.514a.251.251,0,0,1-.25-.25Z"/><path d="M13.75,88.719H24.486a3.755,3.755,0,0,0,3.75-3.75V77.041a3.755,3.755,0,0,0-3.75-3.75H13.75A3.755,3.755,0,0,0,10,77.041v7.928A3.755,3.755,0,0,0,13.75,88.719ZM13.5,77.041a.25.25,0,0,1,.25-.25H24.486a.25.25,0,0,1,.25.25v7.928a.251.251,0,0,1-.25.25H13.75a.251.251,0,0,1-.25-.25Z"/><path d="M43.671,88.719H54.407a3.755,3.755,0,0,0,3.75-3.75V77.041a3.755,3.755,0,0,0-3.75-3.75H43.671a3.755,3.755,0,0,0-3.75,3.75v7.928A3.755,3.755,0,0,0,43.671,88.719Zm-.25-11.678a.251.251,0,0,1,.25-.25H54.407a.25.25,0,0,1,.25.25v7.928a.251.251,0,0,1-.25.25H43.671a.251.251,0,0,1-.25-.25Z"/><path d="M73.593,88.719H84.329a3.755,3.755,0,0,0,3.75-3.75V77.041a3.755,3.755,0,0,0-3.75-3.75H73.593a3.755,3.755,0,0,0-3.75,3.75v7.928A3.755,3.755,0,0,0,73.593,88.719Zm-.25-11.678a.25.25,0,0,1,.25-.25H84.329a.25.25,0,0,1,.25.25v7.928a.251.251,0,0,1-.25.25H73.593a.251.251,0,0,1-.25-.25Z"/><path d="M103.514,88.719H114.25a3.755,3.755,0,0,0,3.75-3.75V77.041a3.755,3.755,0,0,0-3.75-3.75H103.514a3.755,3.755,0,0,0-3.75,3.75v7.928A3.755,3.755,0,0,0,103.514,88.719Zm-.25-11.678a.25.25,0,0,1,.25-.25H114.25a.25.25,0,0,1,.25.25v7.928a.251.251,0,0,1-.25.25H103.514a.251.251,0,0,1-.25-.25Z"/><path d="M13.75,109.376H24.486a3.755,3.755,0,0,0,3.75-3.75V97.7a3.755,3.755,0,0,0-3.75-3.75H13.75A3.755,3.755,0,0,0,10,97.7v7.928A3.755,3.755,0,0,0,13.75,109.376ZM13.5,97.7a.25.25,0,0,1,.25-.25H24.486a.25.25,0,0,1,.25.25v7.928a.25.25,0,0,1-.25.25H13.75a.25.25,0,0,1-.25-.25Z"/><path d="M43.671,109.376H54.407a3.755,3.755,0,0,0,3.75-3.75V97.7a3.755,3.755,0,0,0-3.75-3.75H43.671a3.755,3.755,0,0,0-3.75,3.75v7.928A3.755,3.755,0,0,0,43.671,109.376ZM43.421,97.7a.251.251,0,0,1,.25-.25H54.407a.25.25,0,0,1,.25.25v7.928a.25.25,0,0,1-.25.25H43.671a.251.251,0,0,1-.25-.25Z"/><path d="M86.816,94.905a1.75,1.75,0,0,0-2.453.328l-7.3,9.544-4.1-5.177a1.749,1.749,0,1,0-2.742,2.173l5.5,6.94a1.749,1.749,0,0,0,1.371.663h.015a1.753,1.753,0,0,0,1.375-.687l8.66-11.331A1.749,1.749,0,0,0,86.816,94.905Z"/><path d="M116.737,94.905a1.75,1.75,0,0,0-2.453.328l-7.294,9.544-4.1-5.177a1.749,1.749,0,1,0-2.742,2.173l5.5,6.94a1.751,1.751,0,0,0,1.372.663h.015a1.753,1.753,0,0,0,1.375-.687l8.659-11.331A1.75,1.75,0,0,0,116.737,94.905Z"/></g></svg>
