<svg width="777" height="777" viewBox="0 0 777 777" fill="none" xmlns="http://www.w3.org/2000/svg">
<rect width="777" height="777" fill="white"/>
<path d="M729.955 142.695H695.81V87.2544C695.8 78.0002 692.119 69.1277 685.576 62.584C679.032 56.0402 670.159 52.3597 660.905 52.3501H636.418C627.163 52.3597 618.291 56.0402 611.747 62.584C605.203 69.1277 601.523 78.0002 601.513 87.2544V142.695H522.369V87.2544C522.359 78.0002 518.678 69.1277 512.135 62.584C505.591 56.0402 496.719 52.3597 487.464 52.3501H462.977C453.723 52.3613 444.851 56.0424 438.308 62.5858C431.765 69.1291 428.084 78.0007 428.072 87.2544V142.695H348.928V87.2544C348.916 78.0007 345.235 69.1291 338.692 62.5858C332.149 56.0424 323.277 52.3613 314.023 52.3501H289.554C280.3 52.3613 271.429 56.0424 264.885 62.5858C258.342 69.1291 254.661 78.0007 254.65 87.2544V142.695H175.487V87.2544C175.475 78.0007 171.794 69.1291 165.251 62.5858C158.708 56.0424 149.836 52.3613 140.582 52.3501H116.095C106.841 52.3613 97.9695 56.0424 91.4261 62.5858C84.8827 69.1291 81.2017 78.0007 81.1904 87.2544V142.695H47.0449C34.5723 142.709 22.6146 147.67 13.7951 156.49C4.97561 165.309 0.0144592 177.267 0 189.739L0 683.675C0.0128521 694.538 4.33393 704.953 12.0154 712.634C19.6968 720.315 30.1114 724.636 40.9746 724.649H736.025C746.889 724.636 757.303 720.315 764.985 712.634C772.666 704.953 776.987 694.538 777 683.675V189.739C776.986 177.267 772.024 165.309 763.205 156.49C754.385 147.67 742.428 142.709 729.955 142.695ZM622.759 87.2544C622.764 83.6335 624.205 80.1623 626.765 77.6019C629.326 75.0415 632.797 73.601 636.418 73.5962H660.905C664.526 73.601 667.997 75.0415 670.558 77.6019C673.118 80.1623 674.559 83.6335 674.563 87.2544V142.695H622.759V87.2544ZM449.318 87.2544C449.323 83.6335 450.764 80.1623 453.324 77.6019C455.885 75.0415 459.356 73.601 462.977 73.5962H487.446C491.067 73.601 494.538 75.0415 497.099 77.6019C499.659 80.1623 501.099 83.6335 501.104 87.2544V142.695H449.318V87.2544ZM275.877 87.2544C275.882 83.6335 277.323 80.1623 279.883 77.6019C282.444 75.0415 285.915 73.601 289.536 73.5962H314.023C317.644 73.601 321.115 75.0415 323.676 77.6019C326.236 80.1623 327.677 83.6335 327.682 87.2544V142.695H275.877V87.2544ZM102.437 87.2544C102.441 83.6335 103.882 80.1623 106.442 77.6019C109.003 75.0415 112.474 73.601 116.095 73.5962H140.582C144.203 73.601 147.674 75.0415 150.235 77.6019C152.795 80.1623 154.236 83.6335 154.241 87.2544V142.695H102.437V87.2544ZM21.2461 189.739C21.2541 182.9 23.9748 176.342 28.8113 171.506C33.6477 166.669 40.2051 163.949 47.0449 163.941H729.955C736.795 163.947 743.354 166.667 748.19 171.504C753.027 176.341 755.747 182.899 755.754 189.739V258.807H21.2461V189.739ZM755.754 683.675C755.747 688.905 753.667 693.919 749.968 697.618C746.27 701.316 741.256 703.397 736.025 703.403H40.9746C35.7443 703.397 30.73 701.316 27.0315 697.618C23.3331 693.919 21.2525 688.905 21.2461 683.675V280.054H755.754V683.675Z" fill="#F68121"/>
<path d="M83.4668 413.163H148.638C154.673 413.155 160.458 410.754 164.725 406.487C168.992 402.22 171.393 396.435 171.401 390.4V342.274C171.395 336.239 168.995 330.453 164.727 326.185C160.459 321.917 154.673 319.517 148.638 319.511H83.4668C77.4315 319.517 71.6452 321.917 67.3775 326.185C63.1099 330.453 60.7096 336.239 60.7031 342.274V390.4C60.7112 396.435 63.112 402.22 67.3793 406.487C71.6466 410.754 77.432 413.155 83.4668 413.163ZM81.9492 342.274C81.9492 341.872 82.1091 341.486 82.3937 341.201C82.6783 340.917 83.0643 340.757 83.4668 340.757H148.638C149.04 340.757 149.426 340.917 149.711 341.201C149.995 341.486 150.155 341.872 150.155 342.274V390.4C150.154 390.802 149.993 391.187 149.709 391.471C149.425 391.755 149.04 391.916 148.638 391.917H83.4668C83.0648 391.916 82.6797 391.755 82.3955 391.471C82.1112 391.187 81.9508 390.802 81.9492 390.4V342.274Z" fill="#F68121"/>
<path d="M265.097 413.163H330.268C336.303 413.155 342.088 410.754 346.355 406.487C350.622 402.22 353.023 396.435 353.031 390.4V342.274C353.025 336.239 350.625 330.453 346.357 326.185C342.089 321.917 336.303 319.517 330.268 319.511H265.097C259.062 319.517 253.275 321.917 249.008 326.185C244.74 330.453 242.34 336.239 242.333 342.274V390.4C242.341 396.435 244.742 402.22 249.009 406.487C253.277 410.754 259.062 413.155 265.097 413.163ZM263.579 342.274C263.581 341.872 263.741 341.487 264.026 341.203C264.31 340.919 264.695 340.758 265.097 340.757H330.268C330.67 340.757 331.056 340.917 331.341 341.201C331.625 341.486 331.785 341.872 331.785 342.274V390.4C331.784 390.802 331.623 391.187 331.339 391.471C331.055 391.755 330.67 391.916 330.268 391.917H265.097C264.695 391.916 264.31 391.755 264.026 391.471C263.741 391.187 263.581 390.802 263.579 390.4V342.274Z" fill="#F68121"/>
<path d="M446.732 413.163H511.903C517.938 413.155 523.723 410.754 527.991 406.487C532.258 402.22 534.659 396.435 534.667 390.4V342.274C534.659 336.239 532.258 330.454 527.991 326.187C523.723 321.92 517.938 319.519 511.903 319.511H446.732C440.697 319.517 434.911 321.917 430.643 326.185C426.376 330.453 423.975 336.239 423.969 342.274V390.4C423.977 396.435 426.378 402.22 430.645 406.487C434.912 410.754 440.698 413.155 446.732 413.163ZM445.215 342.274C445.215 341.872 445.375 341.486 445.659 341.201C445.944 340.917 446.33 340.757 446.732 340.757H511.903C512.306 340.757 512.692 340.917 512.976 341.201C513.261 341.486 513.421 341.872 513.421 342.274V390.4C513.419 390.802 513.259 391.187 512.975 391.471C512.69 391.755 512.305 391.916 511.903 391.917H446.732C446.331 391.916 445.945 391.755 445.661 391.471C445.377 391.187 445.217 390.802 445.215 390.4V342.274Z" fill="#F68121"/>
<path d="M628.362 413.163H693.532C699.567 413.155 705.353 410.754 709.62 406.487C713.887 402.22 716.288 396.435 716.296 390.4V342.274C716.288 336.239 713.887 330.454 709.62 326.187C705.353 321.92 699.567 319.519 693.532 319.511H628.362C622.326 319.517 616.54 321.917 612.272 326.185C608.005 330.453 605.604 336.239 605.598 342.274V390.4C605.606 396.435 608.007 402.22 612.274 406.487C616.541 410.754 622.327 413.155 628.362 413.163ZM626.844 342.274C626.844 341.872 627.004 341.486 627.288 341.201C627.573 340.917 627.959 340.757 628.362 340.757H693.532C693.935 340.757 694.321 340.917 694.605 341.201C694.89 341.486 695.05 341.872 695.05 342.274V390.4C695.048 390.802 694.888 391.187 694.604 391.471C694.319 391.755 693.934 391.916 693.532 391.917H628.362C627.96 391.916 627.574 391.755 627.29 391.471C627.006 391.187 626.846 390.802 626.844 390.4V342.274Z" fill="#F68121"/>
<path d="M83.4668 538.552H148.638C154.673 538.544 160.458 536.143 164.725 531.875C168.992 527.608 171.393 521.823 171.401 515.788V467.662C171.393 461.628 168.992 455.842 164.725 451.575C160.458 447.308 154.673 444.907 148.638 444.899H83.4668C77.432 444.907 71.6466 447.308 67.3793 451.575C63.112 455.842 60.7112 461.628 60.7031 467.662V515.788C60.7112 521.823 63.112 527.608 67.3793 531.875C71.6466 536.143 77.432 538.544 83.4668 538.552ZM81.9492 467.662C81.9492 467.26 82.1091 466.874 82.3937 466.589C82.6783 466.305 83.0643 466.145 83.4668 466.145H148.638C149.04 466.145 149.426 466.305 149.711 466.589C149.995 466.874 150.155 467.26 150.155 467.662V515.788C150.154 516.19 149.993 516.575 149.709 516.859C149.425 517.144 149.04 517.304 148.638 517.306H83.4668C83.0648 517.304 82.6797 517.144 82.3955 516.859C82.1112 516.575 81.9508 516.19 81.9492 515.788V467.662Z" fill="#F68121"/>
<path d="M265.097 538.552H330.268C336.303 538.544 342.088 536.143 346.355 531.875C350.622 527.608 353.023 521.823 353.031 515.788V467.662C353.023 461.628 350.622 455.842 346.355 451.575C342.088 447.308 336.303 444.907 330.268 444.899H265.097C259.062 444.907 253.277 447.308 249.009 451.575C244.742 455.842 242.341 461.628 242.333 467.662V515.788C242.341 521.823 244.742 527.608 249.009 531.875C253.277 536.143 259.062 538.544 265.097 538.552ZM263.579 467.662C263.581 467.26 263.741 466.875 264.026 466.591C264.31 466.307 264.695 466.146 265.097 466.145H330.268C330.67 466.145 331.056 466.305 331.341 466.589C331.625 466.874 331.785 467.26 331.785 467.662V515.788C331.784 516.19 331.623 516.575 331.339 516.859C331.055 517.144 330.67 517.304 330.268 517.306H265.097C264.695 517.304 264.31 517.144 264.026 516.859C263.741 516.575 263.581 516.19 263.579 515.788V467.662Z" fill="#F68121"/>
<path d="M446.732 538.552H511.903C517.938 538.544 523.723 536.143 527.991 531.875C532.258 527.608 534.659 521.823 534.667 515.788V467.662C534.659 461.628 532.258 455.842 527.991 451.575C523.723 447.308 517.938 444.907 511.903 444.899H446.732C440.698 444.907 434.912 447.308 430.645 451.575C426.378 455.842 423.977 461.628 423.969 467.662V515.788C423.977 521.823 426.378 527.608 430.645 531.875C434.912 536.143 440.698 538.544 446.732 538.552ZM445.215 467.662C445.215 467.26 445.375 466.874 445.659 466.589C445.944 466.305 446.33 466.145 446.732 466.145H511.903C512.306 466.145 512.692 466.305 512.976 466.589C513.261 466.874 513.421 467.26 513.421 467.662V515.788C513.419 516.19 513.259 516.575 512.975 516.859C512.69 517.144 512.305 517.304 511.903 517.306H446.732C446.331 517.304 445.945 517.144 445.661 516.859C445.377 516.575 445.217 516.19 445.215 515.788V467.662Z" fill="#F68121"/>
<path d="M628.362 538.552H693.532C699.567 538.544 705.353 536.143 709.62 531.875C713.887 527.608 716.288 521.823 716.296 515.788V467.662C716.288 461.628 713.887 455.842 709.62 451.575C705.353 447.308 699.567 444.907 693.532 444.899H628.362C622.327 444.907 616.541 447.308 612.274 451.575C608.007 455.842 605.606 461.628 605.598 467.662V515.788C605.606 521.823 608.007 527.608 612.274 531.875C616.541 536.143 622.327 538.544 628.362 538.552ZM626.844 467.662C626.844 467.26 627.004 466.874 627.288 466.589C627.573 466.305 627.959 466.145 628.362 466.145H693.532C693.935 466.145 694.321 466.305 694.605 466.589C694.89 466.874 695.05 467.26 695.05 467.662V515.788C695.048 516.19 694.888 516.575 694.604 516.859C694.319 517.144 693.934 517.304 693.532 517.306H628.362C627.96 517.304 627.574 517.144 627.29 516.859C627.006 516.575 626.846 516.19 626.844 515.788V467.662Z" fill="#F68121"/>
<path d="M83.4668 663.947H148.638C154.673 663.938 160.458 661.538 164.725 657.27C168.992 653.003 171.393 647.218 171.401 641.183V593.07C171.393 587.035 168.992 581.249 164.725 576.982C160.458 572.715 154.673 570.314 148.638 570.306H83.4668C77.432 570.314 71.6466 572.715 67.3793 576.982C63.112 581.249 60.7112 587.035 60.7031 593.07V641.195C60.7144 647.228 63.1167 653.01 67.3836 657.275C71.6505 661.539 77.4341 663.939 83.4668 663.947ZM81.9492 593.07C81.9492 592.667 82.1091 592.281 82.3937 591.996C82.6783 591.712 83.0643 591.552 83.4668 591.552H148.638C149.04 591.552 149.426 591.712 149.711 591.996C149.995 592.281 150.155 592.667 150.155 593.07V641.195C150.155 641.597 149.995 641.983 149.711 642.268C149.426 642.553 149.04 642.713 148.638 642.713H83.4668C83.0643 642.713 82.6783 642.553 82.3937 642.268C82.1091 641.983 81.9492 641.597 81.9492 641.195V593.07Z" fill="#F68121"/>
<path d="M265.097 663.947H330.268C336.303 663.938 342.088 661.538 346.355 657.27C350.622 653.003 353.023 647.218 353.031 641.183V593.07C353.023 587.035 350.622 581.249 346.355 576.982C342.088 572.715 336.303 570.314 330.268 570.306H265.097C259.062 570.314 253.277 572.715 249.009 576.982C244.742 581.249 242.341 587.035 242.333 593.07V641.195C242.344 647.228 244.747 653.01 249.014 657.275C253.281 661.539 259.064 663.939 265.097 663.947ZM263.579 593.07C263.581 592.668 263.741 592.282 264.026 591.998C264.31 591.714 264.695 591.554 265.097 591.552H330.268C330.67 591.552 331.056 591.712 331.341 591.996C331.625 592.281 331.785 592.667 331.785 593.07V641.195C331.785 641.597 331.625 641.983 331.341 642.268C331.056 642.553 330.67 642.713 330.268 642.713H265.097C264.695 642.711 264.31 642.551 264.026 642.266C263.741 641.982 263.581 641.597 263.579 641.195V593.07Z" fill="#F68121"/>
<path d="M526.999 576.103C524.761 574.392 521.934 573.641 519.142 574.014C516.349 574.388 513.82 575.855 512.109 578.094L467.796 636.029L442.907 604.603C442.041 603.51 440.968 602.598 439.75 601.92C438.532 601.242 437.192 600.81 435.806 600.65C434.421 600.489 433.018 600.603 431.677 600.985C430.335 601.367 429.083 602.01 427.99 602.876C426.897 603.742 425.985 604.815 425.307 606.033C424.629 607.252 424.197 608.592 424.037 609.977C423.876 611.362 423.99 612.766 424.372 614.107C424.754 615.448 425.397 616.701 426.263 617.794L459.649 659.922C460.643 661.177 461.908 662.19 463.35 662.887C464.791 663.584 466.371 663.946 467.972 663.946H468.063C469.679 663.931 471.271 663.547 472.718 662.825C474.164 662.102 475.426 661.06 476.41 659.776L528.978 590.993C529.827 589.886 530.449 588.622 530.808 587.274C531.168 585.926 531.259 584.521 531.075 583.138C530.891 581.755 530.436 580.422 529.737 579.215C529.038 578.008 528.108 576.95 526.999 576.103Z" fill="#F68121"/>
<path d="M708.63 576.103C706.391 574.392 703.565 573.641 700.772 574.014C697.98 574.388 695.45 575.855 693.739 578.094L649.462 636.029L624.574 604.603C623.708 603.51 622.635 602.598 621.417 601.92C620.198 601.242 618.858 600.81 617.473 600.65C616.088 600.489 614.684 600.603 613.343 600.985C612.002 601.367 610.749 602.01 609.656 602.876C608.563 603.742 607.652 604.815 606.974 606.033C606.295 607.252 605.864 608.592 605.703 609.977C605.543 611.362 605.657 612.766 606.039 614.107C606.421 615.448 607.063 616.701 607.929 617.794L641.316 659.922C642.311 661.177 643.577 662.191 645.02 662.887C646.462 663.584 648.043 663.946 649.645 663.946H649.736C651.352 663.931 652.944 663.547 654.39 662.825C655.837 662.102 657.099 661.06 658.082 659.776L710.645 590.993C711.491 589.883 712.11 588.618 712.466 587.269C712.822 585.919 712.91 584.513 712.722 583.131C712.535 581.748 712.077 580.415 711.375 579.21C710.673 578.004 709.74 576.948 708.63 576.103Z" fill="#F68121"/>
</svg>
