<svg width="777" height="777" viewBox="0 0 777 777" fill="none" xmlns="http://www.w3.org/2000/svg">
<rect width="777" height="777" fill="white"/>
<path d="M729.955 142.695H695.81V87.2544C695.8 78.0002 692.119 69.1277 685.576 62.584C679.032 56.0402 670.159 52.3597 660.905 52.3501H636.418C627.163 52.3597 618.291 56.0402 611.747 62.584C605.203 69.1277 601.523 78.0002 601.513 87.2544V142.695H522.369V87.2544C522.359 78.0002 518.678 69.1277 512.135 62.584C505.591 56.0402 496.719 52.3597 487.464 52.3501H462.977C453.723 52.3613 444.851 56.0424 438.308 62.5857C431.765 69.1291 428.084 78.0006 428.072 87.2544V142.695H348.928V87.2544C348.916 78.0006 345.235 69.1291 338.692 62.5857C332.149 56.0424 323.277 52.3613 314.023 52.3501H289.554C280.3 52.3613 271.429 56.0424 264.885 62.5857C258.342 69.1291 254.661 78.0006 254.65 87.2544V142.695H175.487V87.2544C175.475 78.0006 171.794 69.1291 165.251 62.5857C158.708 56.0424 149.836 52.3613 140.582 52.3501H116.095C106.841 52.3613 97.9695 56.0424 91.4261 62.5857C84.8827 69.1291 81.2017 78.0006 81.1904 87.2544V142.695H47.0449C34.5723 142.709 22.6146 147.67 13.7951 156.49C4.97561 165.309 0.0144592 177.267 0 189.739L0 683.675C0.0128521 694.538 4.33393 704.953 12.0154 712.634C19.6968 720.315 30.1114 724.636 40.9746 724.649H736.025C746.889 724.636 757.303 720.315 764.985 712.634C772.666 704.953 776.987 694.538 777 683.675V189.739C776.986 177.267 772.024 165.309 763.205 156.49C754.385 147.67 742.428 142.709 729.955 142.695ZM622.759 87.2544C622.764 83.6335 624.205 80.1623 626.765 77.6019C629.326 75.0415 632.797 73.601 636.418 73.5962H660.905C664.526 73.601 667.997 75.0415 670.558 77.6019C673.118 80.1623 674.559 83.6335 674.563 87.2544V142.695H622.759V87.2544ZM449.318 87.2544C449.323 83.6335 450.764 80.1623 453.324 77.6019C455.885 75.0415 459.356 73.601 462.977 73.5962H487.446C491.067 73.601 494.538 75.0415 497.099 77.6019C499.659 80.1623 501.099 83.6335 501.104 87.2544V142.695H449.318V87.2544ZM275.877 87.2544C275.882 83.6335 277.323 80.1623 279.883 77.6019C282.444 75.0415 285.915 73.601 289.536 73.5962H314.023C317.644 73.601 321.115 75.0415 323.676 77.6019C326.236 80.1623 327.677 83.6335 327.682 87.2544V142.695H275.877V87.2544ZM102.437 87.2544C102.441 83.6335 103.882 80.1623 106.442 77.6019C109.003 75.0415 112.474 73.601 116.095 73.5962H140.582C144.203 73.601 147.674 75.0415 150.235 77.6019C152.795 80.1623 154.236 83.6335 154.241 87.2544V142.695H102.437V87.2544ZM21.2461 189.739C21.2541 182.9 23.9748 176.342 28.8113 171.506C33.6477 166.669 40.2051 163.949 47.0449 163.941H729.955C736.795 163.947 743.354 166.667 748.19 171.504C753.027 176.341 755.747 182.899 755.754 189.739V258.807H21.2461V189.739ZM755.754 683.675C755.747 688.905 753.667 693.919 749.968 697.618C746.27 701.316 741.256 703.397 736.025 703.403H40.9746C35.7443 703.397 30.73 701.316 27.0315 697.618C23.3331 693.919 21.2525 688.905 21.2461 683.675V280.054H755.754V683.675Z" fill="#F68121"/>
<path d="M90.65 259V725.2" stroke="#F68121" stroke-width="15"/>
<line x1="188.8" y1="259" x2="188.8" y2="725.2" stroke="#F68121" stroke-width="15"/>
<path d="M543.9 259V725.2" stroke="#F68121" stroke-width="15"/>
<line x1="655" y1="259" x2="655" y2="725.2" stroke="#F68121" stroke-width="15"/>
<path d="M310.8 259V725.2" stroke="#F68121" stroke-width="15"/>
<line x1="421.9" y1="259" x2="421.9" y2="725.2" stroke="#F68121" stroke-width="15"/>
</svg>
